HIERARCHY
ROOT Hips
{
 OFFSET 0.000000 0.000000 0.000000
 CHANNELS 6 Xposition Yposition Zposition Yrotation Xrotation Zrotation
 JOINT Chest
 {
  OFFSET 0.000000 9.585900 0.002600
  CHANNELS 3 Yrotation Xrotation Zrotation
  JOINT Chest2
  {
   OFFSET 0.000000 9.601200 -0.005300
   CHANNELS 3 Yrotation Xrotation Zrotation
   JOINT Chest3
   {
    OFFSET 0.000000 9.561800 0.000000
    CHANNELS 3 Yrotation Xrotation Zrotation
    JOINT Chest4
    {
     OFFSET 0.000000 9.552100 0.000000
     CHANNELS 3 Yrotation Xrotation Zrotation
     JOINT Neck
     {
      OFFSET 0.000000 14.453000 0.000000
      CHANNELS 3 Yrotation Xrotation Zrotation
      JOINT Head
      {
       OFFSET 0.000000 8.936500 -0.011300
       CHANNELS 3 Yrotation Xrotation Zrotation
       End Site
       {
        OFFSET 0.000000 17.073600 -0.006000
       }
      }
     }
     JOINT RightCollar
     {
      OFFSET -2.921100 9.558500 0.000000
      CHANNELS 3 Yrotation Xrotation Zrotation
      JOINT RightShoulder
      {
       OFFSET -13.519700 0.000000 0.000000
       CHANNELS 3 Yrotation Xrotation Zrotation
       JOINT RightElbow
       {
        OFFSET 0.000000 -29.696600 0.000000
        CHANNELS 3 Yrotation Xrotation Zrotation
        JOINT RightWrist
        {
         OFFSET 0.000000 -24.004700 0.000000
         CHANNELS 3 Yrotation Xrotation Zrotation
         End Site
         {
          OFFSET 0.000000 -17.728500 0.000000
         }
        }
       }
      }
     }
     JOINT LeftCollar
     {
      OFFSET 2.921100 9.558500 0.000000
      CHANNELS 3 Yrotation Xrotation Zrotation
      JOINT LeftShoulder
      {
       OFFSET 13.519700 0.000000 0.000000
       CHANNELS 3 Yrotation Xrotation Zrotation
       JOINT LeftElbow
       {
        OFFSET 0.000000 -29.696600 0.000000
        CHANNELS 3 Yrotation Xrotation Zrotation
        JOINT LeftWrist
        {
         OFFSET 0.000000 -24.004700 0.000000
         CHANNELS 3 Yrotation Xrotation Zrotation
         End Site
         {
          OFFSET 0.000000 -17.728500 0.000000
         }
        }
       }
      }
     }
    }
   }
  }
 }
 JOINT RightHip
 {
  OFFSET -7.771700 -0.012900 -0.001300
  CHANNELS 3 Yrotation Xrotation Zrotation
  JOINT RightKnee
  {
   OFFSET 0.000000 -40.869800 0.001200
   CHANNELS 3 Yrotation Xrotation Zrotation
   JOINT RightAnkle
   {
    OFFSET 0.000000 -39.717900 0.002100
    CHANNELS 3 Yrotation Xrotation Zrotation
    JOINT RightToe
    {
     OFFSET 0.000000 -4.965400 11.033500
     CHANNELS 3 Yrotation Xrotation Zrotation
     End Site
     {
      OFFSET 0.000000 -1.423100 5.872300
     }
    }
   }
  }
 }
 JOINT LeftHip
 {
  OFFSET 7.771700 -0.012900 -0.001300
  CHANNELS 3 Yrotation Xrotation Zrotation
  JOINT LeftKnee
  {
   OFFSET 0.000000 -40.869800 0.001200
   CHANNELS 3 Yrotation Xrotation Zrotation
   JOINT LeftAnkle
   {
    OFFSET 0.000000 -39.717900 0.002100
    CHANNELS 3 Yrotation Xrotation Zrotation
    JOINT LeftToe
    {
     OFFSET 0.000000 -4.965400 11.033500
     CHANNELS 3 Yrotation Xrotation Zrotation
     End Site
     {
      OFFSET 0.000000 -1.423100 5.872300
     }
    }
   }
  }
 }
}
MOTION
Frames: 8
Frame Time: 0.008333
-42.946842 51.570351 20.115493 177.506726 -19.730380 -0.123141 -2.174517 12.662438 0.100576 -0.167675 0.982976 0.063244 -0.285328 1.680089 0.107290 -1.916101 11.491358 0.563892 -2.011298 18.648058 -0.913194 -1.918663 -6.043030 -0.505749 -0.105949 15.435333 7.390804 34.730765 -1.907780 -27.774791 -157.927449 -71.485515 129.802378 -1.540248 3.020215 -25.497587 2.267290 13.701948 -11.918527 -34.179332 5.237277 30.134160 150.855342 -74.688672 -116.621599 18.505742 10.485906 3.081841 -13.445920 -63.001835 6.815024 -60.236862 82.506366 -68.562764 -3.473606 -6.503583 8.087823 0.227583 -0.611102 0.112290 8.868040 -61.221209 -6.453023 55.728742 85.823018 62.282229 -0.896788 -13.904494 -0.524701 0.139176 0.419188 0.064498
-42.947164 51.569560 20.115732 177.511667 -19.720021 -0.119850 -2.179292 12.656595 0.098152 -0.167906 0.983293 0.062886 -0.287024 1.680970 0.106729 -1.916699 11.491711 0.560095 -2.009162 18.639403 -0.911560 -1.918523 -6.052922 -0.505185 -0.098275 15.424181 7.394464 34.730773 -1.907747 -27.774653 -158.035170 -71.508529 129.902530 -1.560100 2.995204 -25.552377 2.268506 13.694820 -11.915803 -34.173398 5.235630 30.135173 151.075114 -74.678016 -116.821612 18.509822 10.524732 3.111746 -13.443175 -63.013066 6.812474 -60.229402 82.512040 -68.560502 -3.480957 -6.502955 8.093685 0.225871 -0.608887 0.109790 8.851878 -61.231492 -6.447550 55.701823 85.819356 62.248467 -0.901214 -13.901312 -0.529354 0.145592 0.419863 0.066621
-42.946414 51.569377 20.115125 177.509561 -19.716006 -0.116332 -2.178335 12.663760 0.097791 -0.169728 0.977363 0.062732 -0.285391 1.678701 0.104771 -1.919679 11.501677 0.557428 -2.004735 18.625447 -0.909261 -1.913310 -6.062782 -0.507628 -0.079396 15.408709 7.400914 34.724563 -1.910367 -27.775840 -158.124458 -71.525985 129.980898 -1.585315 2.994666 -25.566470 2.273171 13.679843 -11.911814 -34.170277 5.233338 30.134308 151.159564 -74.671828 -116.897651 18.487570 10.504770 3.138790 -13.435598 -63.016897 6.809902 -60.233163 82.512008 -68.565794 -3.481900 -6.502650 8.099362 0.224014 -0.609201 0.105743 8.848035 -61.233719 -6.445485 55.691780 85.816130 62.236601 -0.902769 -13.901202 -0.527392 0.148411 0.421219 0.062371
-42.945005 51.569445 20.114491 177.510208 -19.712824 -0.114094 -2.175752 12.667176 0.096715 -0.173016 0.976853 0.061903 -0.285602 1.675777 0.104905 -1.918297 11.505670 0.556787 -2.005500 18.616881 -0.906989 -1.912756 -6.075209 -0.504381 -0.076061 15.402774 7.405590 34.754383 -1.930501 -27.781282 -158.253764 -71.567643 130.077349 -1.624452 3.007164 -25.573651 2.277575 13.667866 -11.908948 -34.173329 5.236760 30.131660 151.240699 -74.669238 -116.969852 18.490808 10.520402 3.139961 -13.431898 -63.019545 6.807950 -60.238985 82.511971 -68.572509 -3.481054 -6.503171 8.102493 0.223829 -0.607587 0.102722 8.847016 -61.235600 -6.446606 55.702629 85.811184 62.247509 -0.905397 -13.900916 -0.526846 0.150093 0.422343 0.060601
-42.943132 51.569831 20.113506 177.521634 -19.712354 -0.115239 -2.183226 12.673384 0.095460 -0.171467 0.976793 0.061942 -0.286175 1.675644 0.104853 -1.920854 11.506929 0.555459 -2.005687 18.604671 -0.899959 -1.915194 -6.084925 -0.500488 -0.076115 15.395598 7.408618 34.768636 -1.938148 -27.782323 -158.280739 -71.585175 130.089819 -1.642381 2.996709 -25.589915 2.277336 13.659011 -11.908432 -34.172716 5.237631 30.131918 151.298574 -74.670358 -117.022931 18.489398 10.503049 3.143095 -13.437649 -63.020148 6.803600 -60.283555 82.510185 -68.613997 -3.479773 -6.504370 8.099989 0.226256 -0.606234 0.102555 8.836865 -61.235031 -6.447810 55.687683 85.808258 62.233848 -0.907398 -13.900014 -0.529174 0.152189 0.423452 0.060610
-42.942163 51.570359 20.112302 177.526443 -19.713359 -0.106575 -2.188389 12.677288 0.085540 -0.167744 0.985723 0.062568 -0.288377 1.671355 0.104428 -1.922414 11.506995 0.555525 -2.006169 18.595882 -0.897979 -1.915915 -6.098259 -0.492974 -0.072146 15.389977 7.412346 34.778488 -1.944052 -27.784697 -158.309060 -71.600854 130.103402 -1.664461 2.988737 -25.604183 2.276043 13.650768 -11.908192 -34.175669 5.241323 30.127891 151.376551 -74.673293 -117.088684 18.467929 10.459549 3.110475 -13.422828 -63.021827 6.782722 -60.312054 82.511321 -68.642736 -3.478078 -6.504209 8.101808 0.225179 -0.607534 0.100627 8.822917 -61.231003 -6.444689 55.657832 85.805240 62.193544 -0.904988 -13.900323 -0.530512 0.152077 0.425114 0.059970
-42.939188 51.569981 20.113810 177.523498 -19.697945 -0.106746 -2.183502 12.664999 0.087930 -0.168711 0.984275 0.062465 -0.286631 1.676647 0.104672 -1.921804 11.508714 0.556425 -2.006044 18.581474 -0.894655 -1.916287 -6.107864 -0.492284 -0.069350 15.382572 7.416266 34.785301 -1.945409 -27.788450 -158.348440 -71.614103 130.123327 -1.741963 3.004052 -25.587720 2.278744 13.644054 -11.905568 -34.172189 5.251763 30.139665 151.428233 -74.655684 -117.134910 18.462537 10.453482 3.091881 -13.429650 -63.036247 6.793167 -60.283899 82.507924 -68.609527 -3.473990 -6.493583 8.096142 0.226034 -0.610685 0.100312 8.811826 -61.245976 -6.434074 55.648224 85.800930 62.183100 -0.906705 -13.901297 -0.538385 0.154873 0.429143 0.062665
-42.935845 51.570104 20.113702 177.523481 -19.692920 -0.109391 -2.179102 12.664616 0.089867 -0.168591 0.984515 0.062730 -0.284221 1.681111 0.105680 -1.922456 11.504660 0.557629 -2.009164 18.573565 -0.892037 -1.919547 -6.123800 -0.488650 -0.071957 15.378162 7.421142 34.794738 -1.944124 -27.794551 -158.267616 -71.604468 130.038671 -1.785079 2.984745 -25.599166 2.277992 13.640307 -11.904825 -34.173997 5.253195 30.143558 151.473392 -74.652244 -117.181120 18.462672 10.454295 3.089215 -13.433332 -63.040107 6.797563 -60.272290 82.507902 -68.593401 -3.463614 -6.484365 8.094550 0.219085 -0.615912 0.097775 8.790880 -61.250779 -6.414907 55.632847 85.799826 62.166394 -0.907566 -13.905925 -0.541884 0.157634 0.433444 0.061443
